# xmcd
#
# Track frame offsets:
#	150
#	14345
#	30517
#	49368
#	63214
#	81018
#	91579
#	97998
#	117029
#	129847
#	143049
#	159887
#	176293
#	193685
#	211612
#	226801
#	240493
#
# Disc length: 3362 seconds
#
# Revision: 0
# Processed by: cddbd v1.4PL0 Copyright (c) Steve Scherf et al.
# Submitted via: dBpowerAMP V4.0
#
DISCID=bd0d2011
DTITLE=Mamphis SLIM - Jazz and Blues Masters
DYEAR=1900
DGENRE=Blues
TTITLE0=Boogie, woogie Memphis
TTITLE1=Rollin' and Tumblin'
TTITLE2=How Long (live)
TTITLE3=John Henry
TTITLE4=Stack Alee
TTITLE5=How Long
TTITLE6=All This Piano Boogie
TTITLE7=Bye Bye Baby
TTITLE8=Love Me Baby
TTITLE9=El Capitan
TTITLE10=Just Landed In Your Town
TTITLE11=Baby Gone
TTITLE12=Cow Cow Blues
TTITLE13=Fourty Four Blues
TTITLE14=Worried Life Blues
TTITLE15=I Guess I'm A Fool
TTITLE16=Really Got The Blues
EXTD=
EXTT0=
EXTT1=
EXTT2=
EXTT3=
EXTT4=
EXTT5=
EXTT6=
EXTT7=
EXTT8=
EXTT9=
EXTT10=
EXTT11=
EXTT12=
EXTT13=
EXTT14=
EXTT15=
EXTT16=
PLAYORDER=
